<svg version="1.2" xmlns="http://www.w3.org/2000/svg" viewBox="0 0 5721 3754" width="1920" height="1260">
	<title>header-bg</title>
	<style>
		.s0 { fill: #000000 } 
	</style>
	<path id="Color Fill 1" fill-rule="evenodd" class="s0" d="m618.5-78.8l501.5-0.2 24 6h141.5l34.5 3.5c19 1.9 43.3 4.6 73.5 8.5h348.5l26.5 3c24.6 2.8 29.1 3 62.8 3 32.2 0 39.7 0.4 100.2 6h2499l47 6h902l17.5-3c16.9-2.9 18.5-3 82.5-3l9-3c6.1-2 10.9-3 15-3 4.1 0 8.9-1 24-6h172l18 12h24l6.5 6.5v114l6 6v516l-18 48v156.5l6 24c6 23.8 6 24.1 6 38.5 0 14.1 0.1 14.7 3 20.5 2.9 5.9 3 6.3 3 21 0 14.7 0.1 15.1 3 21 2.8 5.7 3 6.6 3 18.2 0 8.4 1.9 29.5 6 66.3 4.6 41.7 6 57.4 6 68.8 0 14.3 0.1 14.8 3 20.7 2.4 4.8 3 7.3 3 12.3 0 4.9 1.2 9.8 6 24.2 5.6 16.8 6 18.6 6 27.3 0 7.9 0.8 12.5 6 33.2 5 19.9 6 25.4 6 32.5 0 8.5 0 8.6 6.4 21.3 5 9.8 7.7 13.9 17.6 23.7v12.5c0 10.3 0.5 14.4 5.6 34.5l11 15c6.1 8.3 17.1 23.5 24.6 34 7.7 10.8 15.8 23.6 18.8 29.5 2.9 5.8 8.2 19 11.7 29.5 6.3 18.9 6.4 19 15 30.5 4.7 6.3 10 13 11.7 14.8 1.7 1.9 5.8 4.7 9.1 6.4 3.3 1.7 13 7.2 21.5 12.3 15.1 9.1 15.6 9.5 18.3 14.9 2.2 4.6 2.5 5.9 1.4 7.3-0.6 0.9-10.6 9.8-22.2 19.7-11.6 9.9-38.8 33.8-60.5 53.1-21.7 19.4-48.1 42.9-77.5 69.5h-18.5v96l-2.6 5.2c-1.5 2.9-4.2 9.8-9.4 25.3v294.5l3 12c3 11.8 3 12.4 3 65l6 12v54.5l2.8 8.5c1.6 4.7 4.3 11.3 9.2 21v18.5c0 17.2 0.2 19.3 6 42.5v89l-42.5 0.1-2.5-2.7c-1.4-1.4-5.5-4.1-9.3-6-5.3-2.7-7.9-3.4-12.5-3.4-4.9 0-6.1-0.3-8.2-2.6-1.4-1.4-5.5-4.1-16-9.4h-334l-6 3c-4.8 2.4-7.3 3-12.3 3-5.6 0-6.5 0.2-9.2 3-2.9 2.9-3.3 3-11.5 3-6.9 0-10.2 0.6-26.5 6h-73.5v-2.8c0-1.7 1.1-3.8 3-5.7 2.9-2.9 3-3.3 3-11.8 0-7.7 0.3-9.4 3-14.7 1.6-3.3 3-7.5 3-9.3 0-2.3 0.8-4.1 6-9.2v-132l-6-6v-15.3c0-14.9-0.1-15.3-3-21.2-2.8-5.7-3-6.7-3-29.5l-3-3c-3-2.9-3-3.3-3-12.3 0-8.5-0.3-9.7-3.4-16-1.8-3.7-4.5-10.3-5.9-14.7-1.6-4.9-3.7-9-5.3-10.5-1.4-1.4-4.1-5.5-6-9.3-2.7-5.3-3.4-7.9-3.4-12.5 0-5.1-0.4-6.1-3.3-9-2.1-2.1-4.2-3.2-6-3.2-2.3 0-2.7-0.4-2.7-2.8 0-1.8-1.1-3.8-3.2-5.8q-3.3-3.2-11.8-5.9c-5.9-1.9-9.6-3.8-12-6.1-3.2-3.1-4-3.4-9.8-3.4-5.5 0-7.4-0.6-17.4-5.6-8.9-4.4-12.8-7-18.3-12.4-3.9-3.7-10.8-9.3-24-18h-13c-9.8 0-17.3-0.8-30.5-3-16.7-2.8-18.9-3-76-3v3.2c0 3-0.5 3.6-5.5 6-3 1.6-7.1 2.8-9 2.8-3.3 0-3.7 0.4-6.5 6-2.6 5.2-3.4 6-5.8 6-2 0-4.3 1.5-8.7 6-4.7 4.7-6.6 6-9 6-2.4 0-4.3 1.3-15 12h-24l-6 6h-18.8c-18.4 0-18.8 0-29.7-5.5v-168l-6-6v-24.5h-3.3c-2.3 0-4.1-0.8-9.2-6h-24l-9-6c-8.7-5.8-9.2-6-15.5-6-4.6 0-9.1-0.9-24.5-6h-77.5l-5.8-2.9c-3.7-1.9-11-3.9-21.2-6-8.5-1.7-16.6-3.1-18-3.1-1.5 0-3.7-1.2-8.5-6h-12.5c-11.3 0-13.3-0.3-21.5-3-4.9-1.7-14.3-4.4-32.5-9h-276l-30-12h-552l-24-6h-388.5l-3 3c-2.9 2.9-3.3 3-11.5 3-6.9 0-10.2 0.6-26.5 6h-54.5l-6 3c-5.9 2.9-6.3 3-36.5 3l-6 6h-30l-3 3c-2.9 2.9-3.3 3-11.8 3-7.7 0-9.4 0.3-14.7 3-3.3 1.7-7.5 3-9.3 3-2.3 0-4.1 0.8-9.2 6h-11.8c-11 0-12 0.2-17.7 3-4.7 2.3-7.3 3-12 3-4.8 0-7.3 0.7-19 6.5v5.7c0 5.8 0 5.8 6 5.8v18l24 48v54l-6 12v72.5l12 6v9c0 7.4 0.5 10.6 3 18 2 6.1 3 10.9 3 15q0 6 2.8 14.5c1.6 4.7 4.3 11.3 9.2 21v132l3 6c2.9 5.9 3 6.3 3 21 0 14.7 0.1 15.1 3 21 2.3 4.7 3 7.3 3 12 0 4.7 0.7 7.3 3 12 2.7 5.4 3 7 3 15.2 0 9.2 0 9.3 3.2 12.4 1.8 1.8 5.8 4.4 8.8 5.9 3.8 1.8 9.4 6.5 17.8 14.8 8.7 8.6 13.2 13.9 15.3 17.9 2.6 5.1 2.9 6.8 2.9 23.8h-5.8c-5 0-6 0.3-11.7 6h-73.5l-12-3c-8.7-2.2-14.4-3-20.8-3-8.2 0-8.9-0.2-11.7-2.9-2.2-2.1-7.7-4.4-40-15.1h-107l-3-2.9c-1.9-1.8-6.4-4-22-9.1h-147l-18 6c-16.5 5.5-18.7 6-26.8 6-6.4 0-11.9 0.8-32.7 6h-201.5l-9-3c-8.7-2.9-9.6-3-44.5-3l-15-6c-14.4-5.8-15.3-6-24-6-7.9 0-9.7-0.3-14.8-2.9-3.1-1.6-12.6-5.6-21-9-8.3-3.4-20.6-7.4-27.2-9.1-10.4-2.6-13.8-3-39.5-3l-18 6c-14.4 4.8-19.3 6-24.3 6-4.9 0-7.4 0.6-12.2 3-4.7 2.4-7.3 3-12.3 3-5.7 0-6.5 0.3-9.7 3.4-2.4 2.3-6.1 4.2-11.5 6-6.3 2-10 2.6-17.3 2.6-8.3 0-9.8 0.3-15.5 3.1-3.4 1.8-10 4.5-14.7 6.1-7.6 2.5-9.8 2.8-33.5 2.8l-3 3c-2.9 2.9-3.3 3-11.8 3-7.7 0-9.4 0.3-20.7 6h-67.5l-9-5.9c-8.8-5.8-9.3-6-24.5-9-15-3-16.3-3.1-69.5-3.1l-18-6h-93.5l-6 3c-4.7 2.3-7.3 3-12 3-5.3 0-7.3 0.7-30 12h-182l-6-3c-3.3-1.7-7.5-3-9.3-3-1.7 0-6.8-1.2-11.2-2.6-5.7-1.9-9.2-3.7-12-6.4-2.2-2.1-7.4-6-11.5-8.7-4.1-2.8-10.8-6.7-22-12.3h-28.5l-3 3c-2.1 2.1-3.9 3-6 3-2.1 0-3.9 0.9-9 6h-11.5c-10.2 0-12.5 0.3-29.5 6h-188.5l-12-6h-65l-6 12h-40.5l-18 6c-9.9 3.3-19.5 6-21.3 6-1.7 0-6.1 1.5-9.7 3.2-5.7 2.9-6.5 3.7-6.5 8.8h-8.3c-6.5 0-10.1 0.6-26.2 6h-69l-42-12h-101l-12-12h-271l-21-6c-11.5-3.3-31.7-8.7-44.8-12-22.4-5.7-24.4-6-35.7-6-11.3 0-12.3-0.2-18-3-5.5-2.8-6.8-3-16.8-3-10.4 0-11.1 0.1-28.7 6-16.7 5.6-18.6 6-27 6-7.4 0-10.6 0.5-18 3-4.9 1.7-10.6 3-12.5 3-2.6 0-4.3 0.7-6.5 3-1.8 1.8-4 3-5.5 3-1.4 0-6.6 1.3-20.5 6h-90c-50.7 0.1-89.3 0.4-88.5 0.9 0.8 0.5 9.9 3.3 20.3 6.2 18.5 5.3 18.7 5.4 18.7 8.1 0 2.7-0.2 2.8-5.8 2.8-5.1 0-6.1 0.4-9 3.3-2.1 2.1-3.2 4.2-3.2 8.7h-24.5l-3-3c-2.7-2.7-3.6-3-15-3l-6-6c-4.4-4.5-6.7-6-8.8-6-2.3 0-3.1-0.8-5.7-6-3-6-3-6.1-3-23.5 0-17.4 0-17.5 6-29.5v-156.5l6-6v-258.5l-6.1-12.3c-3.4-6.7-7.5-16-11.9-29.2v-168l3-9c2.5-7.3 3-10.7 3-17.8 0-7.7 0.3-9.4 6-20.7v-114.5l-6-18c-5.6-16.8-6-18.6-6-27.3 0-8.2-0.3-9.8-2.9-15-1.6-3.1-4.3-7-9.1-11.7v-96.5l-3-6c-2.7-5.3-3-7-3-14.8 0-8.4-0.1-8.8-3-11.7-2.1-2-3-4-3-6 0-1.7-1.3-7-3-12-2-6.1-3-10.9-3-15 0-4.7-1.3-9.9-12-42v-12.3c0-10.2-0.5-14.1-6-36.2v-174l-6-12v-113.5l-6-15c-3.3-8.2-6-16.5-6-18.2 0-1.8-1.3-6-3-9.3-2.3-4.6-3-7.4-3-11.7 0-4.4-1.4-10.1-6-23.8-4.8-14.4-6-19.3-6-24.2 0-5-0.6-7.5-3-12.3-2.3-4.7-3-7.3-3-12 0-4.7-0.7-7.3-3-12-2.3-4.6-3-7.3-3-11.7 0-3.9-1.1-9-3.3-15.8-1.9-5.5-4.6-12.4-8.7-20.5v-101l6.4-12.7c5-9.9 7.7-14 12-18.3 4.4-4.2 5.6-6.2 5.6-8.5q0-3 3-6c2.3-2.3 3.6-5.3 5.5-12.5 1.4-5.2 4.1-18.5 9.5-49.5v-420.5l3-6c2.7-5.4 3-6.9 3-15.2 0-9 0-9.4 3-12.3 1.9-1.9 3-4 3-5.7 0-1.6 1.3-8.2 3-14.8 1.7-7 3-14.6 3-24.5l6.1-6c4.8-4.8 7.4-8.6 12.4-18.5 3.5-6.9 7.6-13.7 9.2-15.1 1.6-1.6 6.8-4 12.3-5.8 5.2-1.7 10.7-3.1 12.2-3.1 1.6 0 5.2-1.2 8-2.6 2.9-1.5 9.8-4.2 25.3-9.4h322l35-3c19.2-1.6 44.5-4.3 56-6 15.6-2.2 24.6-3 49-3l18-6c17.9-6 18-6 29.7-6 11 0 12.2-0.2 17.5-2.9 3.2-1.5 11-4.1 17.3-5.6 8.5-2.1 14.8-4.5 37-15.5h15.2c14.3 0 15.8-0.2 23.8-2.9zm4355.9 2147.8h16.5c14.9 0 18.3 0.4 33.1 3.4 12.7 2.5 18.1 4.1 23.5 6.9 3.9 2 10.4 5.9 14.5 8.7 6.9 4.6 8 5 13.5 5.1 6 0 6 0 18.5 9.3 6.9 5.2 15 10.6 18 12.1 3 1.5 8.3 5.5 11.8 8.9 4.9 4.8 6.2 6.8 6.2 9.1 0 2.5 2 5 12 15 10 10 12 12.5 12 15 0 1.7 1.4 7.1 6 21l9.1 6c8.1 5.3 9.5 6.7 12 11.8 1.6 3.1 2.9 7.1 2.9 8.7 0 1.7 2.7 8.4 12 27v9.3c0 9 0 9.3-3.1 12.2-1.7 1.7-4.4 5.7-6.1 9-1.9 3.9-6.1 9.2-11.6 14.9-5.9 5.9-10.7 9.8-14.7 11.8-3.3 1.7-7.6 4.5-9.5 6.3-1.9 1.8-7.3 5.8-12 8.9-6 4-9.5 5.6-15 5.6v12.5l-8.8 5.8c-5.5 3.6-13.2 10.1-20.7 17.7-10 10-12.5 12-15 12.1-1.9 0-4 1-5.8 2.7-2.6 2.5-4.7 3-22.5 6-13.3 2.1-23.1 3.2-30.2 3.2-10.4 0-10.5 0-16.5 6.1l-288.5-0.1v-5.7c-0.1-5.4 0.1-6 3.7-9.3 2.1-1.9 6.2-4.6 9.1-6 4.8-2.2 5.2-2.8 5.2-9h12v-23.5l3-3c2.7-2.7 3-3.6 3-15l6-6c4.7-4.7 6-6.6 6-9 0-2.7 0.6-3.3 6.5-6.2 3.6-1.8 7.7-3.3 9.3-3.2 2.3 0 3.1-0.9 8.7-12.1h6.3c4.9 0 7.4-0.6 12.2-3 3.3-1.6 7.2-3 8.8-3 2 0.1 4.3-1.5 8.7-6 5.8-5.8 6.2-6 11.3-6 2.8 0 5.2 0.4 5.2 0.8-0.1 0.4-3.3 3.1-14.5 11.3h5c4.8 0 5.3-0.3 11-6 5.6-5.6 7.1-6.4 35.5-17.6v-72l5.9-18 5.3-2.5c2.9-1.3 7-4 9.2-6 2.1-1.9 5.3-6.4 7.1-10 1.8-3.5 4.3-7.4 5.5-8.5 1.2-1.1 5-6 8.2-11 4-6 11.3-14.2 37.3-40.5l6 0.1c5.4 0 6.3-0.3 8.9-3z"/>
</svg>